<mxfile host="app.diagrams.net" agent="Mozilla/5.0 (Windows NT 10.0; Win64; x64) AppleWebKit/537.36 (KHTML, like Gecko) Chrome/133.0.0.0 Safari/537.36 Edg/133.0.0.0" version="26.0.16">
  <diagram name="Page-1" id="VYNopzWsXOPkZ_Rhxfwm">
    <mxGraphModel dx="1843" dy="726" grid="1" gridSize="10" guides="1" tooltips="1" connect="1" arrows="1" fold="1" page="1" pageScale="1" pageWidth="850" pageHeight="1100" math="0" shadow="0">
      <root>
        <mxCell id="0" />
        <mxCell id="1" parent="0" />
        <mxCell id="lj117l4O_4laCSOWSe7Z-11" style="edgeStyle=none;rounded=0;orthogonalLoop=1;jettySize=auto;html=1;exitX=0.5;exitY=1;exitDx=0;exitDy=0;entryX=0.5;entryY=0;entryDx=0;entryDy=0;" edge="1" parent="1" source="lj117l4O_4laCSOWSe7Z-1" target="lj117l4O_4laCSOWSe7Z-10">
          <mxGeometry relative="1" as="geometry" />
        </mxCell>
        <mxCell id="lj117l4O_4laCSOWSe7Z-1" value="Attention block" style="rounded=1;whiteSpace=wrap;html=1;" vertex="1" parent="1">
          <mxGeometry x="365" y="170" width="120" height="60" as="geometry" />
        </mxCell>
        <mxCell id="lj117l4O_4laCSOWSe7Z-17" style="edgeStyle=orthogonalEdgeStyle;rounded=0;orthogonalLoop=1;jettySize=auto;html=1;exitX=0.5;exitY=1;exitDx=0;exitDy=0;entryX=1;entryY=0.5;entryDx=0;entryDy=0;" edge="1" parent="1" source="lj117l4O_4laCSOWSe7Z-2" target="lj117l4O_4laCSOWSe7Z-18">
          <mxGeometry relative="1" as="geometry">
            <mxPoint x="434.9999999999998" y="380" as="targetPoint" />
          </mxGeometry>
        </mxCell>
        <mxCell id="lj117l4O_4laCSOWSe7Z-2" value="Linear layer" style="rounded=1;whiteSpace=wrap;html=1;" vertex="1" parent="1">
          <mxGeometry x="485" y="310" width="120" height="60" as="geometry" />
        </mxCell>
        <mxCell id="lj117l4O_4laCSOWSe7Z-3" value="Gate layer" style="rounded=1;whiteSpace=wrap;html=1;" vertex="1" parent="1">
          <mxGeometry x="245" y="310" width="120" height="60" as="geometry" />
        </mxCell>
        <mxCell id="lj117l4O_4laCSOWSe7Z-20" style="edgeStyle=none;rounded=0;orthogonalLoop=1;jettySize=auto;html=1;exitX=0.5;exitY=1;exitDx=0;exitDy=0;entryX=0.5;entryY=0;entryDx=0;entryDy=0;" edge="1" parent="1" source="lj117l4O_4laCSOWSe7Z-4" target="lj117l4O_4laCSOWSe7Z-19">
          <mxGeometry relative="1" as="geometry" />
        </mxCell>
        <mxCell id="lj117l4O_4laCSOWSe7Z-4" value="Linear layer" style="rounded=1;whiteSpace=wrap;html=1;" vertex="1" parent="1">
          <mxGeometry x="365" y="450" width="120" height="60" as="geometry" />
        </mxCell>
        <mxCell id="lj117l4O_4laCSOWSe7Z-7" style="edgeStyle=orthogonalEdgeStyle;rounded=0;orthogonalLoop=1;jettySize=auto;html=1;exitX=1;exitY=0.5;exitDx=0;exitDy=0;entryX=0.5;entryY=0;entryDx=0;entryDy=0;" edge="1" parent="1" source="lj117l4O_4laCSOWSe7Z-6" target="lj117l4O_4laCSOWSe7Z-1">
          <mxGeometry relative="1" as="geometry">
            <Array as="points">
              <mxPoint x="-110" y="150" />
              <mxPoint x="425" y="150" />
            </Array>
          </mxGeometry>
        </mxCell>
        <mxCell id="lj117l4O_4laCSOWSe7Z-6" value="" style="rounded=1;whiteSpace=wrap;html=1;" vertex="1" parent="1">
          <mxGeometry x="-200" y="80" width="90" height="60" as="geometry" />
        </mxCell>
        <mxCell id="lj117l4O_4laCSOWSe7Z-9" value="" style="edgeStyle=orthogonalEdgeStyle;orthogonalLoop=1;jettySize=auto;html=1;rounded=0;entryX=1;entryY=0.5;entryDx=0;entryDy=0;" edge="1" parent="1" target="lj117l4O_4laCSOWSe7Z-10">
          <mxGeometry width="80" relative="1" as="geometry">
            <mxPoint x="425" y="150" as="sourcePoint" />
            <mxPoint x="510" y="210" as="targetPoint" />
            <Array as="points">
              <mxPoint x="425" y="150" />
              <mxPoint x="520" y="150" />
              <mxPoint x="520" y="260" />
            </Array>
          </mxGeometry>
        </mxCell>
        <mxCell id="lj117l4O_4laCSOWSe7Z-12" style="edgeStyle=orthogonalEdgeStyle;rounded=0;orthogonalLoop=1;jettySize=auto;html=1;exitX=0.5;exitY=1;exitDx=0;exitDy=0;entryX=0.5;entryY=0;entryDx=0;entryDy=0;" edge="1" parent="1" source="lj117l4O_4laCSOWSe7Z-10" target="lj117l4O_4laCSOWSe7Z-3">
          <mxGeometry relative="1" as="geometry">
            <Array as="points">
              <mxPoint x="425" y="290" />
              <mxPoint x="305" y="290" />
            </Array>
          </mxGeometry>
        </mxCell>
        <mxCell id="lj117l4O_4laCSOWSe7Z-10" value="" style="shape=orEllipse;perimeter=ellipsePerimeter;whiteSpace=wrap;html=1;backgroundOutline=1;" vertex="1" parent="1">
          <mxGeometry x="415" y="250" width="20" height="20" as="geometry" />
        </mxCell>
        <mxCell id="lj117l4O_4laCSOWSe7Z-13" value="" style="edgeStyle=orthogonalEdgeStyle;orthogonalLoop=1;jettySize=auto;html=1;rounded=0;entryX=0.5;entryY=0;entryDx=0;entryDy=0;" edge="1" parent="1" target="lj117l4O_4laCSOWSe7Z-2">
          <mxGeometry width="80" relative="1" as="geometry">
            <mxPoint x="420" y="290" as="sourcePoint" />
            <mxPoint x="480" y="240" as="targetPoint" />
            <Array as="points">
              <mxPoint x="430" y="290" />
              <mxPoint x="545" y="290" />
            </Array>
          </mxGeometry>
        </mxCell>
        <mxCell id="lj117l4O_4laCSOWSe7Z-22" style="edgeStyle=none;rounded=0;orthogonalLoop=1;jettySize=auto;html=1;exitX=0.5;exitY=1;exitDx=0;exitDy=0;entryX=0.5;entryY=0;entryDx=0;entryDy=0;" edge="1" parent="1" source="lj117l4O_4laCSOWSe7Z-18" target="lj117l4O_4laCSOWSe7Z-4">
          <mxGeometry relative="1" as="geometry" />
        </mxCell>
        <mxCell id="lj117l4O_4laCSOWSe7Z-18" value="" style="shape=sumEllipse;perimeter=ellipsePerimeter;whiteSpace=wrap;html=1;backgroundOutline=1;" vertex="1" parent="1">
          <mxGeometry x="415" y="410" width="20" height="20" as="geometry" />
        </mxCell>
        <mxCell id="lj117l4O_4laCSOWSe7Z-23" style="edgeStyle=orthogonalEdgeStyle;rounded=0;orthogonalLoop=1;jettySize=auto;html=1;" edge="1" parent="1">
          <mxGeometry relative="1" as="geometry">
            <mxPoint x="250" y="600" as="targetPoint" />
            <mxPoint x="410" y="550" as="sourcePoint" />
            <Array as="points">
              <mxPoint x="425" y="550" />
              <mxPoint x="251" y="550" />
              <mxPoint x="251" y="640" />
            </Array>
          </mxGeometry>
        </mxCell>
        <mxCell id="lj117l4O_4laCSOWSe7Z-19" value="" style="shape=orEllipse;perimeter=ellipsePerimeter;whiteSpace=wrap;html=1;backgroundOutline=1;" vertex="1" parent="1">
          <mxGeometry x="415" y="540" width="20" height="20" as="geometry" />
        </mxCell>
        <mxCell id="lj117l4O_4laCSOWSe7Z-21" value="" style="edgeStyle=orthogonalEdgeStyle;orthogonalLoop=1;jettySize=auto;html=1;rounded=0;entryX=1;entryY=0.5;entryDx=0;entryDy=0;" edge="1" parent="1" target="lj117l4O_4laCSOWSe7Z-19">
          <mxGeometry width="80" relative="1" as="geometry">
            <mxPoint x="425" y="240" as="sourcePoint" />
            <mxPoint x="480" y="440" as="targetPoint" />
            <Array as="points">
              <mxPoint x="425" y="280" />
              <mxPoint x="640" y="280" />
              <mxPoint x="640" y="550" />
            </Array>
          </mxGeometry>
        </mxCell>
        <mxCell id="lj117l4O_4laCSOWSe7Z-25" value="" style="edgeStyle=orthogonalEdgeStyle;rounded=0;orthogonalLoop=1;jettySize=auto;html=1;exitX=0.5;exitY=1;exitDx=0;exitDy=0;entryX=0.5;entryY=0;entryDx=0;entryDy=0;" edge="1" parent="1" source="lj117l4O_4laCSOWSe7Z-3" target="lj117l4O_4laCSOWSe7Z-79">
          <mxGeometry relative="1" as="geometry">
            <mxPoint x="305" y="340" as="sourcePoint" />
            <mxPoint x="305" y="350" as="targetPoint" />
          </mxGeometry>
        </mxCell>
        <mxCell id="lj117l4O_4laCSOWSe7Z-65" value="" style="rounded=0;whiteSpace=wrap;html=1;fillColor=#EEF098;strokeColor=#000000;" vertex="1" parent="1">
          <mxGeometry x="440" y="610" width="20" height="20" as="geometry" />
        </mxCell>
        <mxCell id="lj117l4O_4laCSOWSe7Z-66" value="" style="rounded=0;whiteSpace=wrap;html=1;fillColor=#EEF098;strokeColor=#000000;" vertex="1" parent="1">
          <mxGeometry x="420" y="610" width="20" height="20" as="geometry" />
        </mxCell>
        <mxCell id="lj117l4O_4laCSOWSe7Z-67" value="" style="rounded=0;whiteSpace=wrap;html=1;fillColor=#EEF098;strokeColor=#000000;" vertex="1" parent="1">
          <mxGeometry x="400" y="610" width="20" height="20" as="geometry" />
        </mxCell>
        <mxCell id="lj117l4O_4laCSOWSe7Z-68" value="" style="rounded=0;whiteSpace=wrap;html=1;fillColor=#EEF098;strokeColor=#000000;" vertex="1" parent="1">
          <mxGeometry x="380" y="610" width="20" height="20" as="geometry" />
        </mxCell>
        <mxCell id="lj117l4O_4laCSOWSe7Z-69" value="" style="rounded=0;whiteSpace=wrap;html=1;fillColor=#EEF098;strokeColor=#000000;" vertex="1" parent="1">
          <mxGeometry x="460" y="610" width="20" height="20" as="geometry" />
        </mxCell>
        <mxCell id="lj117l4O_4laCSOWSe7Z-71" value="" style="edgeStyle=none;orthogonalLoop=1;jettySize=auto;html=1;rounded=0;" edge="1" parent="1">
          <mxGeometry width="80" relative="1" as="geometry">
            <mxPoint x="310" y="620" as="sourcePoint" />
            <mxPoint x="370" y="620" as="targetPoint" />
            <Array as="points" />
          </mxGeometry>
        </mxCell>
        <mxCell id="lj117l4O_4laCSOWSe7Z-73" value="Contrastive learning" style="verticalLabelPosition=middle;verticalAlign=middle;html=1;shape=trapezoid;perimeter=trapezoidPerimeter;whiteSpace=wrap;size=0.23;arcSize=10;flipV=1;labelPosition=center;align=center;direction=south;" vertex="1" parent="1">
          <mxGeometry x="540" y="582.5" width="100" height="75" as="geometry" />
        </mxCell>
        <mxCell id="lj117l4O_4laCSOWSe7Z-74" value="Classification" style="verticalLabelPosition=middle;verticalAlign=middle;html=1;shape=trapezoid;perimeter=trapezoidPerimeter;whiteSpace=wrap;size=0.23;arcSize=10;flipV=1;labelPosition=center;align=center;direction=south;" vertex="1" parent="1">
          <mxGeometry x="540" y="695" width="100" height="70" as="geometry" />
        </mxCell>
        <mxCell id="lj117l4O_4laCSOWSe7Z-77" style="edgeStyle=none;rounded=0;orthogonalLoop=1;jettySize=auto;html=1;exitX=1;exitY=0.5;exitDx=0;exitDy=0;entryX=0.5;entryY=1;entryDx=0;entryDy=0;" edge="1" parent="1" source="lj117l4O_4laCSOWSe7Z-75" target="lj117l4O_4laCSOWSe7Z-74">
          <mxGeometry relative="1" as="geometry">
            <mxPoint x="520" y="730" as="targetPoint" />
          </mxGeometry>
        </mxCell>
        <mxCell id="lj117l4O_4laCSOWSe7Z-75" value="Linear layer" style="rounded=1;whiteSpace=wrap;html=1;" vertex="1" parent="1">
          <mxGeometry x="370" y="700" width="120" height="60" as="geometry" />
        </mxCell>
        <mxCell id="lj117l4O_4laCSOWSe7Z-76" value="" style="edgeStyle=none;orthogonalLoop=1;jettySize=auto;html=1;rounded=0;entryX=0.5;entryY=1;entryDx=0;entryDy=0;" edge="1" parent="1" target="lj117l4O_4laCSOWSe7Z-73">
          <mxGeometry width="80" relative="1" as="geometry">
            <mxPoint x="490" y="620" as="sourcePoint" />
            <mxPoint x="640" y="620" as="targetPoint" />
            <Array as="points" />
          </mxGeometry>
        </mxCell>
        <mxCell id="lj117l4O_4laCSOWSe7Z-80" style="edgeStyle=orthogonalEdgeStyle;rounded=0;orthogonalLoop=1;jettySize=auto;html=1;exitX=0.5;exitY=1;exitDx=0;exitDy=0;entryX=0;entryY=0.5;entryDx=0;entryDy=0;" edge="1" parent="1" source="lj117l4O_4laCSOWSe7Z-79" target="lj117l4O_4laCSOWSe7Z-18">
          <mxGeometry relative="1" as="geometry">
            <Array as="points">
              <mxPoint x="305" y="420" />
            </Array>
          </mxGeometry>
        </mxCell>
        <mxCell id="lj117l4O_4laCSOWSe7Z-79" value="" style="shape=stencil(tZTdbsMgDIWfhtuJH1Xb7ZRt78Fad0GjgIC26dvPCclUp0taTYkUIdkHPh8Chqkq1ToAk7xm6o1JKTjHEePzKNYpwDaX5ElHoz8tFCXl6L/hbHa5ZxhXQzS5VdU74684p/1UtfXOIcR4l4hypSNMG4dreVNgffkLiQLyD5Ah9iZLlsmPx7FPm3XAYiW/FDu4X9zvcmDqWKx1cIuBxf+xqsLM1OVW1d5H+Ir+6HZ/mtkba0sPzTgGa01IcKcvxk07buop+t3yD3kMun0BboRBPvjTlX9Bj/FlM+fw99yOsTBEWfU8QASlNLLEctAlLdooOv+iqD61Q8xPbHLmH3bLbu5Aly2Pb5f4AQ==);whiteSpace=wrap;html=1;" vertex="1" parent="1">
          <mxGeometry x="295" y="390" width="20" height="20" as="geometry" />
        </mxCell>
        <mxCell id="lj117l4O_4laCSOWSe7Z-81" value="for each&amp;nbsp;" style="text;html=1;align=center;verticalAlign=middle;whiteSpace=wrap;rounded=0;" vertex="1" parent="1">
          <mxGeometry x="270" y="568" width="140" height="70" as="geometry" />
        </mxCell>
        <mxCell id="lj117l4O_4laCSOWSe7Z-82" value="CLS token" style="text;html=1;align=center;verticalAlign=middle;resizable=0;points=[];autosize=1;strokeColor=none;fillColor=none;" vertex="1" parent="1">
          <mxGeometry x="120" y="610" width="80" height="30" as="geometry" />
        </mxCell>
        <mxCell id="lj117l4O_4laCSOWSe7Z-83" value="Feature token" style="text;html=1;align=center;verticalAlign=middle;whiteSpace=wrap;rounded=0;" vertex="1" parent="1">
          <mxGeometry x="130" y="670" width="60" height="30" as="geometry" />
        </mxCell>
        <mxCell id="lj117l4O_4laCSOWSe7Z-84" value="" style="rounded=0;whiteSpace=wrap;html=1;fillColor=#EEF098;strokeColor=#000000;" vertex="1" parent="1">
          <mxGeometry x="260" y="610" width="20" height="20" as="geometry" />
        </mxCell>
        <mxCell id="lj117l4O_4laCSOWSe7Z-85" value="" style="rounded=0;whiteSpace=wrap;html=1;fillColor=#EEF098;strokeColor=#000000;" vertex="1" parent="1">
          <mxGeometry x="240" y="610" width="20" height="20" as="geometry" />
        </mxCell>
        <mxCell id="lj117l4O_4laCSOWSe7Z-86" value="" style="rounded=0;whiteSpace=wrap;html=1;fillColor=#EEF098;strokeColor=#000000;" vertex="1" parent="1">
          <mxGeometry x="220" y="610" width="20" height="20" as="geometry" />
        </mxCell>
        <mxCell id="lj117l4O_4laCSOWSe7Z-87" value="" style="rounded=0;whiteSpace=wrap;html=1;fillColor=#EEF098;strokeColor=#000000;" vertex="1" parent="1">
          <mxGeometry x="200" y="610" width="20" height="20" as="geometry" />
        </mxCell>
        <mxCell id="lj117l4O_4laCSOWSe7Z-88" value="" style="rounded=0;whiteSpace=wrap;html=1;fillColor=#EEF098;strokeColor=#000000;" vertex="1" parent="1">
          <mxGeometry x="280" y="610" width="20" height="20" as="geometry" />
        </mxCell>
        <mxCell id="lj117l4O_4laCSOWSe7Z-89" value="" style="rounded=0;whiteSpace=wrap;html=1;fillColor=#EEF098;strokeColor=#000000;" vertex="1" parent="1">
          <mxGeometry x="260" y="630" width="20" height="20" as="geometry" />
        </mxCell>
        <mxCell id="lj117l4O_4laCSOWSe7Z-90" value="" style="rounded=0;whiteSpace=wrap;html=1;fillColor=#EEF098;strokeColor=#000000;" vertex="1" parent="1">
          <mxGeometry x="240" y="630" width="20" height="20" as="geometry" />
        </mxCell>
        <mxCell id="lj117l4O_4laCSOWSe7Z-91" value="" style="rounded=0;whiteSpace=wrap;html=1;fillColor=#EEF098;strokeColor=#000000;" vertex="1" parent="1">
          <mxGeometry x="220" y="630" width="20" height="20" as="geometry" />
        </mxCell>
        <mxCell id="lj117l4O_4laCSOWSe7Z-92" value="" style="rounded=0;whiteSpace=wrap;html=1;fillColor=#EEF098;strokeColor=#000000;" vertex="1" parent="1">
          <mxGeometry x="200" y="630" width="20" height="20" as="geometry" />
        </mxCell>
        <mxCell id="lj117l4O_4laCSOWSe7Z-93" value="" style="rounded=0;whiteSpace=wrap;html=1;fillColor=#EEF098;strokeColor=#000000;" vertex="1" parent="1">
          <mxGeometry x="280" y="630" width="20" height="20" as="geometry" />
        </mxCell>
        <mxCell id="lj117l4O_4laCSOWSe7Z-94" value="" style="rounded=0;whiteSpace=wrap;html=1;fillColor=#B4E5A2;strokeColor=#000000;" vertex="1" parent="1">
          <mxGeometry x="260" y="660" width="20" height="20" as="geometry" />
        </mxCell>
        <mxCell id="lj117l4O_4laCSOWSe7Z-95" value="" style="rounded=0;whiteSpace=wrap;html=1;fillColor=#B4E5A2;strokeColor=#000000;" vertex="1" parent="1">
          <mxGeometry x="240" y="660" width="20" height="20" as="geometry" />
        </mxCell>
        <mxCell id="lj117l4O_4laCSOWSe7Z-96" value="" style="rounded=0;whiteSpace=wrap;html=1;fillColor=#B4E5A2;strokeColor=#000000;" vertex="1" parent="1">
          <mxGeometry x="220" y="660" width="20" height="20" as="geometry" />
        </mxCell>
        <mxCell id="lj117l4O_4laCSOWSe7Z-97" value="" style="rounded=0;whiteSpace=wrap;html=1;fillColor=#B4E5A2;strokeColor=#000000;" vertex="1" parent="1">
          <mxGeometry x="200" y="660" width="20" height="20" as="geometry" />
        </mxCell>
        <mxCell id="lj117l4O_4laCSOWSe7Z-98" value="" style="rounded=0;whiteSpace=wrap;html=1;fillColor=#B4E5A2;strokeColor=#000000;" vertex="1" parent="1">
          <mxGeometry x="280" y="660" width="20" height="20" as="geometry" />
        </mxCell>
        <mxCell id="lj117l4O_4laCSOWSe7Z-99" value="" style="rounded=0;whiteSpace=wrap;html=1;fillColor=#B4E5A2;strokeColor=#000000;" vertex="1" parent="1">
          <mxGeometry x="260" y="680" width="20" height="20" as="geometry" />
        </mxCell>
        <mxCell id="lj117l4O_4laCSOWSe7Z-100" value="" style="rounded=0;whiteSpace=wrap;html=1;fillColor=#B4E5A2;strokeColor=#000000;" vertex="1" parent="1">
          <mxGeometry x="240" y="680" width="20" height="20" as="geometry" />
        </mxCell>
        <mxCell id="lj117l4O_4laCSOWSe7Z-101" value="" style="rounded=0;whiteSpace=wrap;html=1;fillColor=#B4E5A2;strokeColor=#000000;" vertex="1" parent="1">
          <mxGeometry x="220" y="680" width="20" height="20" as="geometry" />
        </mxCell>
        <mxCell id="lj117l4O_4laCSOWSe7Z-102" value="" style="rounded=0;whiteSpace=wrap;html=1;fillColor=#B4E5A2;strokeColor=#000000;" vertex="1" parent="1">
          <mxGeometry x="200" y="680" width="20" height="20" as="geometry" />
        </mxCell>
        <mxCell id="lj117l4O_4laCSOWSe7Z-103" value="" style="rounded=0;whiteSpace=wrap;html=1;fillColor=#B4E5A2;strokeColor=#000000;" vertex="1" parent="1">
          <mxGeometry x="280" y="680" width="20" height="20" as="geometry" />
        </mxCell>
        <mxCell id="lj117l4O_4laCSOWSe7Z-104" value="" style="rounded=0;whiteSpace=wrap;html=1;fillColor=#E59EDD;strokeColor=#000000;" vertex="1" parent="1">
          <mxGeometry x="260" y="710" width="20" height="20" as="geometry" />
        </mxCell>
        <mxCell id="lj117l4O_4laCSOWSe7Z-105" value="" style="rounded=0;whiteSpace=wrap;html=1;fillColor=#E59EDD;strokeColor=#000000;" vertex="1" parent="1">
          <mxGeometry x="240" y="710" width="20" height="20" as="geometry" />
        </mxCell>
        <mxCell id="lj117l4O_4laCSOWSe7Z-106" value="" style="rounded=0;whiteSpace=wrap;html=1;fillColor=#E59EDD;strokeColor=#000000;" vertex="1" parent="1">
          <mxGeometry x="220" y="710" width="20" height="20" as="geometry" />
        </mxCell>
        <mxCell id="lj117l4O_4laCSOWSe7Z-107" value="" style="rounded=0;whiteSpace=wrap;html=1;fillColor=#E59EDD;strokeColor=#000000;" vertex="1" parent="1">
          <mxGeometry x="200" y="710" width="20" height="20" as="geometry" />
        </mxCell>
        <mxCell id="lj117l4O_4laCSOWSe7Z-108" value="" style="rounded=0;whiteSpace=wrap;html=1;fillColor=#E59EDD;strokeColor=#000000;" vertex="1" parent="1">
          <mxGeometry x="280" y="710" width="20" height="20" as="geometry" />
        </mxCell>
        <mxCell id="lj117l4O_4laCSOWSe7Z-109" value="" style="rounded=0;whiteSpace=wrap;html=1;fillColor=#E59EDD;strokeColor=#000000;" vertex="1" parent="1">
          <mxGeometry x="260" y="730" width="20" height="20" as="geometry" />
        </mxCell>
        <mxCell id="lj117l4O_4laCSOWSe7Z-110" value="" style="rounded=0;whiteSpace=wrap;html=1;fillColor=#E59EDD;strokeColor=#000000;" vertex="1" parent="1">
          <mxGeometry x="240" y="730" width="20" height="20" as="geometry" />
        </mxCell>
        <mxCell id="lj117l4O_4laCSOWSe7Z-111" value="" style="rounded=0;whiteSpace=wrap;html=1;fillColor=#E59EDD;strokeColor=#000000;" vertex="1" parent="1">
          <mxGeometry x="220" y="730" width="20" height="20" as="geometry" />
        </mxCell>
        <mxCell id="lj117l4O_4laCSOWSe7Z-112" value="" style="rounded=0;whiteSpace=wrap;html=1;fillColor=#E59EDD;strokeColor=#000000;" vertex="1" parent="1">
          <mxGeometry x="200" y="730" width="20" height="20" as="geometry" />
        </mxCell>
        <mxCell id="lj117l4O_4laCSOWSe7Z-113" value="" style="rounded=0;whiteSpace=wrap;html=1;fillColor=#E59EDD;strokeColor=#000000;" vertex="1" parent="1">
          <mxGeometry x="280" y="730" width="20" height="20" as="geometry" />
        </mxCell>
        <mxCell id="lj117l4O_4laCSOWSe7Z-114" value="" style="rounded=0;whiteSpace=wrap;html=1;fillColor=#96DCF8;strokeColor=#000000;" vertex="1" parent="1">
          <mxGeometry x="260" y="760" width="20" height="20" as="geometry" />
        </mxCell>
        <mxCell id="lj117l4O_4laCSOWSe7Z-115" value="" style="rounded=0;whiteSpace=wrap;html=1;fillColor=#96DCF8;strokeColor=#000000;" vertex="1" parent="1">
          <mxGeometry x="240" y="760" width="20" height="20" as="geometry" />
        </mxCell>
        <mxCell id="lj117l4O_4laCSOWSe7Z-116" value="" style="rounded=0;whiteSpace=wrap;html=1;fillColor=#96DCF8;strokeColor=#000000;" vertex="1" parent="1">
          <mxGeometry x="220" y="760" width="20" height="20" as="geometry" />
        </mxCell>
        <mxCell id="lj117l4O_4laCSOWSe7Z-117" value="" style="rounded=0;whiteSpace=wrap;html=1;fillColor=#96DCF8;strokeColor=#000000;" vertex="1" parent="1">
          <mxGeometry x="200" y="760" width="20" height="20" as="geometry" />
        </mxCell>
        <mxCell id="lj117l4O_4laCSOWSe7Z-118" value="" style="rounded=0;whiteSpace=wrap;html=1;fillColor=#96DCF8;strokeColor=#000000;" vertex="1" parent="1">
          <mxGeometry x="280" y="760" width="20" height="20" as="geometry" />
        </mxCell>
        <mxCell id="lj117l4O_4laCSOWSe7Z-119" value="" style="rounded=0;whiteSpace=wrap;html=1;fillColor=#96DCF8;strokeColor=#000000;" vertex="1" parent="1">
          <mxGeometry x="260" y="780" width="20" height="20" as="geometry" />
        </mxCell>
        <mxCell id="lj117l4O_4laCSOWSe7Z-120" value="" style="rounded=0;whiteSpace=wrap;html=1;fillColor=#96DCF8;strokeColor=#000000;" vertex="1" parent="1">
          <mxGeometry x="240" y="780" width="20" height="20" as="geometry" />
        </mxCell>
        <mxCell id="lj117l4O_4laCSOWSe7Z-121" value="" style="rounded=0;whiteSpace=wrap;html=1;fillColor=#96DCF8;strokeColor=#000000;" vertex="1" parent="1">
          <mxGeometry x="220" y="780" width="20" height="20" as="geometry" />
        </mxCell>
        <mxCell id="lj117l4O_4laCSOWSe7Z-122" value="" style="rounded=0;whiteSpace=wrap;html=1;fillColor=#96DCF8;strokeColor=#000000;" vertex="1" parent="1">
          <mxGeometry x="200" y="780" width="20" height="20" as="geometry" />
        </mxCell>
        <mxCell id="lj117l4O_4laCSOWSe7Z-123" value="" style="rounded=0;whiteSpace=wrap;html=1;fillColor=#96DCF8;strokeColor=#000000;" vertex="1" parent="1">
          <mxGeometry x="280" y="780" width="20" height="20" as="geometry" />
        </mxCell>
        <mxCell id="lj117l4O_4laCSOWSe7Z-124" value="" style="edgeStyle=none;orthogonalLoop=1;jettySize=auto;html=1;rounded=0;entryX=0.5;entryY=0;entryDx=0;entryDy=0;" edge="1" parent="1" target="lj117l4O_4laCSOWSe7Z-75">
          <mxGeometry width="80" relative="1" as="geometry">
            <mxPoint x="430" y="640" as="sourcePoint" />
            <mxPoint x="460" y="610" as="targetPoint" />
            <Array as="points" />
          </mxGeometry>
        </mxCell>
      </root>
    </mxGraphModel>
  </diagram>
</mxfile>
